<svg width="256" height="58" viewBox="0 0 256 58" fill="none" xmlns="http://www.w3.org/2000/svg">
<path d="M84.736 19.408C77.92 19.408 72.768 24.272 72.768 30.736C72.768 37.296 77.792 42.256 84.544 42.256C87.84 42.256 91.392 40.624 93.792 38.16L90.464 34.64C88.896 36.24 86.72 37.264 84.832 37.264C81.28 37.264 78.592 34.416 78.592 30.672C78.592 26.992 81.28 24.176 84.832 24.176C86.816 24.176 88.992 25.296 90.464 27.088L93.76 23.184C91.52 20.88 88.064 19.408 84.736 19.408ZM99.1483 16.88C97.4523 16.88 96.2363 18.096 96.2363 19.792C96.2363 21.52 97.4523 22.736 99.1483 22.736C100.844 22.736 102.06 21.52 102.06 19.792C102.06 18.096 100.844 16.88 99.1483 16.88ZM101.868 42V24.752H96.3643V42H101.868ZM111.838 24.752H106.302V42H111.838V33.136C112.126 30.704 114.238 29.2 117.438 29.488V24.496C114.974 24.528 113.022 25.648 111.838 27.664V24.752ZM127.478 24.56C122.134 24.56 118.518 28.112 118.518 33.424C118.518 38.672 122.102 42.192 127.414 42.192C131.062 42.192 133.846 40.72 135.254 38.192L131.222 35.824C130.486 37.136 129.27 37.776 127.702 37.776C125.558 37.776 124.086 36.048 124.086 33.392C124.086 30.8 125.558 29.04 127.702 29.04C129.206 29.04 130.39 29.712 131.19 30.832L135.158 28.432C133.654 25.968 130.902 24.56 127.478 24.56ZM143.623 42V18.256H138.087V42H143.623ZM155.76 24.56C150.416 24.56 146.768 28.08 146.768 33.424C146.768 38.672 150.288 42.192 155.92 42.192C159.088 42.192 161.68 41.072 163.44 39.152L160.528 36.304C159.376 37.456 157.904 38.064 156.4 38.064C154.352 38.064 152.88 36.912 152.336 34.864H164.464C164.848 28.56 161.84 24.56 155.76 24.56ZM152.24 31.888C152.592 29.808 153.904 28.4 155.824 28.4C157.808 28.4 159.152 29.776 159.152 31.888H152.24ZM174.978 24.56C169.634 24.56 166.018 28.112 166.018 33.424C166.018 38.672 169.602 42.192 174.914 42.192C178.562 42.192 181.346 40.72 182.754 38.192L178.722 35.824C177.986 37.136 176.77 37.776 175.202 37.776C173.058 37.776 171.586 36.048 171.586 33.392C171.586 30.8 173.058 29.04 175.202 29.04C176.706 29.04 177.89 29.712 178.69 30.832L182.658 28.432C181.154 25.968 178.402 24.56 174.978 24.56ZM196.915 24.496C194.355 24.528 192.339 25.552 191.123 27.6V18.256H185.587V42H191.123V33.488C191.123 31.12 192.467 29.392 194.643 29.392C196.531 29.392 197.683 30.64 197.683 32.656V42H203.219V31.12C203.219 27.088 200.723 24.496 196.915 24.496ZM214.858 24.496C211.978 24.496 209.546 25.2 206.858 26.448L208.426 30.096C210.25 29.168 212.138 28.656 213.578 28.656C215.818 28.656 216.938 29.68 216.938 31.376V31.632H212.394C208.106 31.664 205.77 33.584 205.77 36.848C205.77 40.016 208.01 42.256 211.69 42.256C214.026 42.256 215.85 41.488 216.97 40.016V42H222.378V30.736C222.346 26.832 219.594 24.496 214.858 24.496ZM213.386 38.512C211.85 38.512 210.954 37.712 210.954 36.464C210.954 35.184 211.786 34.608 213.45 34.608H216.938V36.144C216.586 37.552 215.114 38.512 213.386 38.512ZM229.086 16.88C227.39 16.88 226.174 18.096 226.174 19.792C226.174 21.52 227.39 22.736 229.086 22.736C230.782 22.736 231.998 21.52 231.998 19.792C231.998 18.096 230.782 16.88 229.086 16.88ZM231.806 42V24.752H226.302V42H231.806ZM247.535 24.496C244.975 24.528 242.991 25.552 241.775 27.568V24.752H236.239V42H241.775V32.88C241.999 30.832 243.279 29.392 245.295 29.392C247.151 29.392 248.335 30.64 248.335 32.656V42H253.839V31.12C253.839 27.088 251.343 24.496 247.535 24.496Z" fill="white"/>
<circle cx="10" cy="10" r="10" fill="white"/>
<circle cx="10" cy="48" r="10" fill="white"/>
<circle cx="48" cy="48" r="10" fill="white"/>
<circle cx="48" cy="10" r="10" fill="white"/>
<path d="M42 10H15" stroke="white" stroke-width="3"/>
<path d="M12 16V42" stroke="white" stroke-width="3"/>
<path d="M15 49H44" stroke="white" stroke-width="3"/>
<path d="M49 44V29" stroke="white" stroke-width="3" stroke-linecap="round"/>
</svg>
