<svg width="41" height="41" viewBox="0 0 41 41" fill="none" xmlns="http://www.w3.org/2000/svg">
<path d="M13.6665 32.4583H8.5415V15.375H13.6665V32.4583ZM32.4582 32.4583H27.3332V23.3324C27.3332 20.9544 26.4858 19.7705 24.8065 19.7705C23.4758 19.7705 22.6318 20.4334 22.2082 21.7608V32.4583H17.0832C17.0832 32.4583 17.1515 17.0833 17.0832 15.375H21.1285L21.4411 18.7917H21.547C22.5977 17.0833 24.277 15.9251 26.5798 15.9251C28.3308 15.9251 29.747 16.412 30.8284 17.6351C31.9166 18.86 32.4582 20.5034 32.4582 22.8114V32.4583Z" fill="white"/>
<path d="M11.104 13.6666C12.5664 13.6666 13.7519 12.5194 13.7519 11.1041C13.7519 9.6889 12.5664 8.54163 11.104 8.54163C9.64157 8.54163 8.45605 9.6889 8.45605 11.1041C8.45605 12.5194 9.64157 13.6666 11.104 13.6666Z" fill="white"/>
<rect x="3.5" y="4.5" width="35" height="35" rx="3.5" stroke="white" stroke-width="3"/>
</svg>
